HIERARCHY
ROOT Hips
{
 OFFSET 0.000000 0.000000 0.000000
 CHANNELS 6 Xposition Yposition Zposition Yrotation Xrotation Zrotation
 JOINT Chest
 {
  OFFSET 0.000000 10.737675 -1.193075
  CHANNELS 3 Yrotation Xrotation Zrotation
  JOINT Chest2
  {
   OFFSET 0.000000 12.001122 0.000000
   CHANNELS 3 Yrotation Xrotation Zrotation
   JOINT Chest3
   {
    OFFSET 0.000000 10.955751 0.009049
    CHANNELS 3 Yrotation Xrotation Zrotation
    JOINT Chest4
    {
     OFFSET 0.000000 10.943524 0.009058
     CHANNELS 3 Yrotation Xrotation Zrotation
     JOINT Neck
     {
      OFFSET 0.000000 15.322021 0.000000
      CHANNELS 3 Yrotation Xrotation Zrotation
      JOINT Head
      {
       OFFSET 0.000000 10.186116 -0.019461
       CHANNELS 3 Yrotation Xrotation Zrotation
       End Site
       {
        OFFSET 0.000000 18.961773 -0.002617
       }
      }
     }
     JOINT RightCollar
     {
      OFFSET -3.313897 8.583378 0.000000
      CHANNELS 3 Yrotation Xrotation Zrotation
      JOINT RightShoulder
      {
       OFFSET -15.310706 0.000000 0.000000
       CHANNELS 3 Yrotation Xrotation Zrotation
       JOINT RightElbow
       {
        OFFSET -32.687170 0.000000 0.000000
        CHANNELS 3 Yrotation Xrotation Zrotation
        JOINT RightWrist
        {
         OFFSET -26.735356 0.000000 0.000000
         CHANNELS 3 Yrotation Xrotation Zrotation
         JOINT Prop1
         {
          OFFSET -9.837286 -1.093032 2.186064
          CHANNELS 3 Yrotation Xrotation Zrotation
          End Site
          {
           OFFSET 0.000000 0.000000 180.876438
          }
         }
         End Site
         {
          OFFSET -20.002482 0.000000 0.000000
         }
        }
       }
      }
     }
     JOINT LeftCollar
     {
      OFFSET 3.313897 8.583378 0.000000
      CHANNELS 3 Yrotation Xrotation Zrotation
      JOINT LeftShoulder
      {
       OFFSET 15.310706 0.000000 0.000000
       CHANNELS 3 Yrotation Xrotation Zrotation
       JOINT LeftElbow
       {
        OFFSET 32.687170 0.000000 0.000000
        CHANNELS 3 Yrotation Xrotation Zrotation
        JOINT LeftWrist
        {
         OFFSET 26.735356 0.000000 0.000000
         CHANNELS 3 Yrotation Xrotation Zrotation
         End Site
         {
          OFFSET 20.002482 0.000000 0.000000
         }
        }
       }
      }
     }
    }
   }
  }
 }
 JOINT RightHip
 {
  OFFSET -8.791979 -0.020941 0.002327
  CHANNELS 3 Yrotation Xrotation Zrotation
  JOINT RightKnee
  {
   OFFSET 0.000000 -45.783943 0.002139
   CHANNELS 3 Yrotation Xrotation Zrotation
   JOINT RightAnkle
   {
    OFFSET 0.000000 -44.772112 0.003606
    CHANNELS 3 Yrotation Xrotation Zrotation
    JOINT RightToe
    {
     OFFSET 0.000000 -7.135648 16.083753
     CHANNELS 3 Yrotation Xrotation Zrotation
     End Site
     {
      OFFSET 0.000000 -1.637513 6.979937
     }
    }
   }
  }
 }
 JOINT LeftHip
 {
  OFFSET 8.791979 -0.023356 0.002595
  CHANNELS 3 Yrotation Xrotation Zrotation
  JOINT LeftKnee
  {
   OFFSET 0.000000 -45.783943 0.002139
   CHANNELS 3 Yrotation Xrotation Zrotation
   JOINT LeftAnkle
   {
    OFFSET 0.000000 -44.772112 0.003606
    CHANNELS 3 Yrotation Xrotation Zrotation
    JOINT LeftToe
    {
     OFFSET 0.000000 -7.135648 16.083753
     CHANNELS 3 Yrotation Xrotation Zrotation
     End Site
     {
      OFFSET 0.000000 -1.637513 6.979937
     }
    }
   }
  }
 }
}
MOTION
Frames: 12
Frame Time: 0.016667
12.793315 98.591440 21.760831 -0.917822 6.017904 -2.044274 -1.724139 3.399539 0.188387 -0.777123 -4.316134 0.096565 -0.775190 1.503764 0.017651 -0.579859 6.964487 0.015202 1.006676 17.778752 -0.393729 1.986997 -2.998367 -1.062925 1.579666 0.959485 0.354154 -6.637232 -33.100113 65.143237 29.421989 -13.927535 36.051761 -7.013103 3.659778 -12.241449 -43.908960 -7.959944 8.315826 -2.813583 3.121638 -5.086504 -0.659667 -29.212116 -65.005395 -37.738947 -20.790497 -26.340647 14.865946 -3.572584 21.009078 -0.925815 -24.506330 -0.164745 -6.756795 14.193682 -1.237915 -6.168089 -3.896746 11.574542 0.000000 0.000000 0.000000 4.378045 -9.046477 -0.807331 -0.444215 16.676523 0.656709 3.758170 -13.300279 3.023346 0.000000 0.000000 0.000000
12.659994 98.450511 22.417401 -0.696908 5.674265 -1.764503 -1.783228 3.337703 0.112183 -0.799386 -4.343355 0.062826 -0.797354 1.476512 -0.018347 -0.599156 6.944094 -0.011973 1.019364 17.911262 -0.394368 2.008527 -2.752052 -1.065922 1.627138 0.836081 0.441029 -6.750205 -33.342031 65.220266 29.142438 -13.636355 36.200968 -7.090927 3.586612 -12.436069 -44.375636 -8.018367 8.550946 -2.876179 3.015674 -5.070296 -0.975622 -29.695790 -64.687515 -36.985406 -20.668120 -26.458776 14.858648 -3.607269 20.951351 -0.125574 -23.906944 -0.368052 -6.180095 12.331930 -1.621096 -6.127765 -3.291703 11.388493 -0.000000 0.000000 -0.000000 4.414125 -8.392395 -0.983672 -0.357936 16.919965 0.784177 3.555256 -13.837899 2.747575 -0.000593 0.036654 0.016707
12.502537 98.303849 23.111816 -0.462321 5.328776 -1.453872 -1.840740 3.279372 0.023773 -0.820330 -4.368945 0.023634 -0.818204 1.450892 -0.059665 -0.617866 6.924934 -0.043166 1.032967 18.045885 -0.383516 2.027904 -2.502037 -1.047989 1.666446 0.727068 0.535410 -6.852926 -33.602249 65.314740 28.881096 -13.240218 36.300505 -7.155592 3.513520 -12.622226 -44.843767 -8.120856 8.862925 -2.943089 2.926475 -5.044574 -1.218046 -30.236224 -64.386630 -36.117174 -20.493529 -26.672989 14.807227 -3.642057 20.897905 0.409933 -23.304995 -0.487210 -5.316976 10.862983 -2.054443 -6.306771 -2.803079 10.917455 0.000000 0.000000 0.000000 4.464976 -7.727170 -1.177473 -0.215650 17.186449 0.958553 3.278635 -14.364476 2.367877 -0.001061 0.073292 0.033452
12.330928 98.153033 23.839237 -0.235089 4.985130 -1.124879 -1.886127 3.226711 -0.063817 -0.835942 -4.391997 -0.015272 -0.833738 1.427818 -0.100155 -0.632532 6.907682 -0.073743 1.036067 18.175882 -0.382312 2.031234 -2.260628 -1.044410 1.680857 0.621122 0.607923 -6.813175 -33.825717 65.394511 28.580591 -12.957834 36.324907 -7.212200 3.448900 -12.802021 -45.264792 -8.213791 9.104780 -2.997859 2.822294 -5.025057 -1.527027 -30.759554 -64.073843 -35.211497 -20.297645 -26.821245 14.731358 -3.672481 20.805246 0.716649 -22.798454 -0.649923 -4.520497 10.088302 -2.355333 -6.442239 -2.405840 10.377911 -0.000000 0.000000 -0.000000 4.605551 -7.044410 -1.359559 -0.131750 17.450211 1.108456 2.971579 -14.850493 1.903505 0.000000 0.000000 0.000000
12.161497 97.992577 24.598771 -0.007563 4.675511 -0.756417 -1.920502 3.156240 -0.152619 -0.846612 -4.422945 -0.054881 -0.844329 1.396853 -0.140844 -0.643512 6.884510 -0.104489 1.014724 18.316461 -0.399583 1.995487 -1.999658 -1.066604 1.643101 0.527950 0.639774 -6.531968 -33.989258 65.446772 28.190810 -12.900645 36.237016 -7.257878 3.397826 -12.964438 -45.610664 -8.275076 9.202622 -3.032949 2.692592 -5.016534 -1.953575 -31.236650 -63.754266 -34.271630 -20.071086 -26.848397 14.634957 -3.696293 20.651704 0.738519 -22.502206 -0.953792 -3.963258 10.346181 -2.379947 -6.288907 -2.222169 9.752106 -0.000000 0.000000 -0.000000 4.890616 -6.313648 -1.554770 -0.146531 17.597028 1.220322 2.598134 -15.270701 1.377325 0.001790 -0.229173 -0.209955
11.977913 97.827966 25.391310 0.212436 4.367502 -0.369360 -1.942684 3.091631 -0.240430 -0.851933 -4.451280 -0.094123 -0.849589 1.368509 -0.180624 -0.650431 6.863303 -0.134557 0.982820 18.452432 -0.426726 1.943659 -1.747210 -1.103614 1.581393 0.437864 0.649076 -6.110345 -34.114280 65.488256 27.764663 -12.959370 36.071149 -7.294900 3.354883 -13.120464 -45.908968 -8.328567 9.229884 -3.055371 2.547994 -5.014195 -2.445611 -31.696877 -63.424725 -33.292917 -19.822211 -26.811609 14.513311 -3.716807 20.459324 0.539973 -22.307202 -1.315090 -3.481442 11.278982 -2.224549 -6.110213 -2.134061 9.049507 0.000000 0.000000 0.000000 5.263005 -5.562367 -1.731731 -0.220482 17.740989 1.308162 2.191603 -15.650396 0.768424 0.003346 -0.567986 -0.470524
11.741173 97.677241 26.214696 0.380560 3.969000 -0.039114 -1.939783 3.105782 -0.307302 -0.847163 -4.444705 -0.123877 -0.844839 1.375092 -0.209897 -0.649049 6.868274 -0.156670 0.971054 18.531644 -0.458699 1.931333 -1.599638 -1.157060 1.562477 0.310729 0.662193 -5.715288 -34.212926 65.529816 27.398255 -13.020528 35.907535 -7.335621 3.312858 -13.305308 -46.194260 -8.390730 9.259823 -3.070178 2.388574 -5.019203 -2.990514 -32.152877 -63.042961 -32.337934 -19.610869 -26.719799 14.373108 -3.738138 20.249973 0.333585 -21.970377 -1.585356 -2.931945 12.134268 -2.058488 -6.407209 -1.774241 8.551859 0.000000 0.000000 0.000000 5.634370 -4.874054 -1.779207 -0.350594 18.200002 1.344880 1.897012 -16.034692 0.029397 0.002975 -0.988460 -0.453942
11.434682 97.536599 27.084055 0.480019 3.378825 0.214488 -1.910607 3.260807 -0.348601 -0.831947 -4.375651 -0.141813 -0.829762 1.444169 -0.226294 -0.638930 6.920095 -0.169010 0.996894 18.518948 -0.498161 1.991860 -1.621860 -1.238096 1.623234 0.111863 0.693326 -5.377751 -34.273464 65.538897 27.147724 -13.063991 35.781671 -7.396147 3.269589 -13.545553 -46.494693 -8.474961 9.329062 -3.068941 2.199086 -5.033683 -3.658018 -32.585254 -62.535503 -31.427655 -19.520922 -26.573491 14.209543 -3.767659 20.058171 0.221335 -21.309783 -1.730660 -2.257699 12.598398 -1.948733 -7.592279 -0.803758 8.564082 -0.000000 -0.000000 0.000000 6.022684 -4.142505 -1.664009 -0.649626 19.006980 1.305245 1.812643 -16.589680 -0.848587 -0.001561 -1.261453 0.004216
11.075035 97.409843 27.984261 0.527399 2.699462 0.411906 -1.857992 3.494647 -0.367600 -0.807403 -4.271685 -0.149668 -0.805430 1.548169 -0.231661 -0.621031 6.998091 -0.173005 1.043396 18.449839 -0.542790 2.092855 -1.748298 -1.336465 1.727063 -0.123730 0.728029 -5.066040 -34.307779 65.546738 26.956022 -13.108079 35.659499 -7.460687 3.227098 -13.814459 -46.782129 -8.567124 9.401520 -3.059801 1.994963 -5.055576 -4.381940 -33.010702 -61.972574 -30.537793 -19.469269 -26.375482 14.027685 -3.798859 19.849573 0.099366 -20.505855 -1.786060 -1.518615 12.986054 -1.833025 -9.235642 0.435216 8.774851 -0.000000 0.000000 -0.000000 6.414371 -3.478738 -1.419442 -1.014868 20.127954 1.213032 1.835726 -17.146690 -1.860212 -0.008487 -1.617910 0.739233
10.673003 97.326421 28.867773 0.529915 2.144925 0.538657 -1.775120 3.693850 -0.356193 -0.771018 -4.183259 -0.144412 -0.769257 1.636647 -0.222710 -0.593202 7.064428 -0.166237 1.089614 18.378055 -0.579847 2.191036 -1.879787 -1.421035 1.830100 -0.331563 0.750402 -4.851904 -34.365981 65.656385 26.746237 -13.095992 35.517693 -7.493598 3.184674 -14.067341 -47.006756 -8.641995 9.441091 -3.073085 1.822121 -5.079558 -4.944410 -33.498761 -61.526378 -29.665694 -19.265086 -26.133836 13.848675 -3.815000 19.542321 -0.129265 -19.854969 -1.706132 -0.754622 13.489910 -1.687968 -10.590086 1.270090 8.575776 -0.000000 0.000000 -0.000000 6.677034 -3.294776 -1.048509 -1.123432 21.783905 1.120219 1.787708 -17.248198 -3.022040 -0.029980 -2.720866 1.582948
10.222434 97.307620 29.724228 0.478427 1.835366 0.557520 -1.654715 3.797353 -0.291601 -0.720824 -4.137586 -0.116229 -0.719238 1.682388 -0.189429 -0.553216 7.098684 -0.141177 1.134078 18.322944 -0.604372 2.281765 -1.980516 -1.481777 1.917358 -0.485971 0.752828 -4.817347 -34.468974 65.929905 26.477479 -12.973897 35.372508 -7.476397 3.140660 -14.288260 -47.137547 -8.670314 9.423873 -3.105225 1.712854 -5.109744 -5.207432 -34.079766 -61.290752 -28.839153 -18.806842 -25.866516 13.684437 -3.804184 19.077642 -0.647422 -19.517529 -1.407030 0.129181 14.228554 -1.486605 -11.327756 1.329909 7.613309 0.000000 0.000000 0.000000 6.805471 -3.798774 -0.516089 -0.926085 24.087938 1.059534 1.552893 -16.799868 -4.350460 -0.100790 -4.881879 2.492082
9.729480 97.332154 30.563989 0.384617 1.650708 0.506683 -1.503480 3.865780 -0.197097 -0.658545 -4.107582 -0.075173 -0.657132 1.712466 -0.142051 -0.503137 7.121178 -0.105519 1.178020 18.265010 -0.621478 2.369237 -2.086628 -1.528874 2.003723 -0.612470 0.743188 -4.880645 -34.598121 66.303539 26.188550 -12.797424 35.206877 -7.427007 3.096865 -14.493000 -47.205754 -8.681030 9.373007 -3.160284 1.634720 -5.141614 -5.301080 -34.726863 -61.176849 -28.036644 -18.195288 -25.546015 13.521227 -3.778611 18.513936 -1.268605 -19.327093 -0.974642 1.039112 15.084707 -1.254154 -11.795147 0.976971 6.256400 -0.000000 -0.000000 0.000000 6.792484 -4.780432 0.135344 -0.481980 26.934343 1.026227 1.173722 -15.898479 -5.795955 -0.242025 -7.790104 3.508397
